# xmcd
#
# Track frame offsets:
# 150
# 17316
# 45479
# 76212
# 107377
# 125547
# 140682
# 171876
# 194013
# 212940
# 236060
# 259154
# 275934
# 299012
#
# Disc length: 4796 seconds
#
# Revision: 0
# Processed by: cddbd v1.5.1PL0 Copyright (c) Steve Scherf et al.
# Submitted via: Audion 3.0.2 (http://www.panic.com/audion/)
#
DISCID=d612ba0e
DTITLE=Boy George - Funtime Mixes and Remixes
DYEAR=1900
DGENRE=
TTITLE0=Why Go? 7" Edit
TTITLE1=Love Is Leaving (Alex Natale Dub Mix)
TTITLE2=When Will You Learn (Dado Club Mix)
TTITLE3=Funtime (Ramp Alien Spawn Remix)
TTITLE4=Oh Lord (Disco Club Mix)
TTITLE5=See Thru (Galaxy Week-end Version)
TTITLE6=Why Go? (Faithless 2)
TTITLE7=Police and Thieves (Anorac Mix)
TTITLE8=Love is Leaving (Black Teeth Edit)
TTITLE9=When Will You Learn (Special K Club Mix)
TTITLE10=Generations Of Love (? Mix)
TTITLE11=Why Go? (7" Edit)
TTITLE12=Love is Leaving (The Incisor Cut)
TTITLE13=Mini Mix by Karmeleon
EXTD=
EXTT0=
EXTT1=
EXTT2=
EXTT3=
EXTT4=
EXTT5=
EXTT6=
EXTT7=
EXTT8=
EXTT9=
EXTT10=
EXTT11=
EXTT12=
EXTT13=
PLAYORDER=
